<?xml version="1.0" encoding="iso-8859-1"?>
<!-- Generator: Adobe Illustrator 19.0.0, SVG Export Plug-In . SVG Version: 6.00 Build 0)  -->
<svg version="1.1" id="Layer_1" xmlns="http://www.w3.org/2000/svg" xmlns:xlink="http://www.w3.org/1999/xlink" x="0px" y="0px"
	 viewBox="0 0 512 512" style="enable-background:new 0 0 512 512;" xml:space="preserve">
<g>
	<path style="fill:#2080E0;" d="M512,256C512,114.617,397.383,0,256,0S0,114.617,0,256s114.617,256,256,256S512,397.383,512,256"/>
	<path style="fill:#FFFFFF;" d="M270.434,88.276h-49.779c-9.737,0-17.62,7.892-17.62,17.62v176.587v132.414
		c0,9.754,7.901,17.655,17.655,17.655c9.746,0,17.655-7.901,17.655-17.655V282.483h35.31c54.228,0,98.083-44.456,97.086-98.922
		C369.762,130.101,323.903,88.276,270.434,88.276"/>
	<path style="fill:#2080E0;" d="M238.345,247.172V123.586h35.31c34.074,0,61.793,27.727,61.793,61.793s-27.719,61.793-61.793,61.793
		H238.345z"/>
</g>
<g>
</g>
<g>
</g>
<g>
</g>
<g>
</g>
<g>
</g>
<g>
</g>
<g>
</g>
<g>
</g>
<g>
</g>
<g>
</g>
<g>
</g>
<g>
</g>
<g>
</g>
<g>
</g>
<g>
</g>
</svg>
